<svg xmlns="http://www.w3.org/2000/svg" viewBox="0 0 96 96" shape-rendering="crispEdges">
  <!-- Hair -->
  <rect x="24" y="8" width="48" height="8" fill="#5D3A1A"/>
  <rect x="20" y="16" width="56" height="8" fill="#5D3A1A"/>
  <rect x="16" y="24" width="64" height="8" fill="#5D3A1A"/>

  <!-- Face -->
  <rect x="20" y="32" width="56" height="8" fill="#F4DFC8"/>
  <rect x="20" y="40" width="56" height="8" fill="#F4DFC8"/>
  <rect x="20" y="48" width="56" height="8" fill="#F4DFC8"/>
  <rect x="24" y="56" width="48" height="8" fill="#F4DFC8"/>

  <!-- Glasses -->
  <rect x="24" y="40" width="16" height="8" fill="#5D3A1A"/>
  <rect x="56" y="40" width="16" height="8" fill="#5D3A1A"/>
  <rect x="40" y="42" width="16" height="4" fill="#5D3A1A"/>
  <!-- Glass lenses -->
  <rect x="28" y="42" width="8" height="4" fill="#87CEEB"/>
  <rect x="60" y="42" width="8" height="4" fill="#87CEEB"/>

  <!-- Smile -->
  <rect x="36" y="52" width="24" height="4" fill="#8B4513"/>

  <!-- Headphones -->
  <rect x="8" y="32" width="8" height="24" fill="#5D3A1A"/>
  <rect x="80" y="32" width="8" height="24" fill="#5D3A1A"/>
  <rect x="12" y="36" width="8" height="16" fill="#DEB887"/>
  <rect x="76" y="36" width="8" height="16" fill="#DEB887"/>
  <rect x="16" y="16" width="8" height="16" fill="#5D3A1A"/>
  <rect x="72" y="16" width="8" height="16" fill="#5D3A1A"/>
  <rect x="24" y="8" width="48" height="8" fill="#5D3A1A"/>

  <!-- Shirt -->
  <rect x="24" y="64" width="48" height="8" fill="#87CEEB"/>
  <rect x="16" y="72" width="64" height="16" fill="#87CEEB"/>
</svg>
