<svg xmlns="http://www.w3.org/2000/svg" viewBox="0 0 40 40" shape-rendering="crispEdges">
  <!-- Left bracket < -->
  <rect x="4" y="12" width="4" height="4" fill="#FF6347"/>
  <rect x="8" y="16" width="4" height="4" fill="#FF6347"/>
  <rect x="12" y="20" width="4" height="4" fill="#FF6347"/>
  <rect x="8" y="24" width="4" height="4" fill="#FF6347"/>
  <rect x="4" y="28" width="4" height="4" fill="#FF6347"/>

  <!-- Slash / -->
  <rect x="18" y="28" width="4" height="4" fill="#FF6347"/>
  <rect x="20" y="24" width="4" height="4" fill="#FF6347"/>
  <rect x="22" y="20" width="4" height="4" fill="#FF6347"/>
  <rect x="24" y="16" width="4" height="4" fill="#FF6347"/>
  <rect x="26" y="12" width="4" height="4" fill="#FF6347"/>

  <!-- Right bracket > -->
  <rect x="32" y="12" width="4" height="4" fill="#FF6347"/>
  <rect x="28" y="16" width="4" height="4" fill="#FF6347"/>
  <rect x="24" y="20" width="4" height="4" fill="#FF6347"/>
  <rect x="28" y="24" width="4" height="4" fill="#FF6347"/>
  <rect x="32" y="28" width="4" height="4" fill="#FF6347"/>
</svg>
